<svg xmlns="http://www.w3.org/2000/svg" viewBox="23.46 449.56 369.03 87.90" width="369" height="88">
<defs>
<clipPath id="clip-0">
<path clip-rule="nonzero" d="M 418 385 L 839 385 L 839 594.554688 L 418 594.554688 Z M 418 385 "/>
</clipPath>
<clipPath id="clip-1">
<path clip-rule="nonzero" d="M 0.457031 385 L 419 385 L 419 594.554688 L 0.457031 594.554688 Z M 0.457031 385 "/>
</clipPath>
</defs>
<path fill-rule="nonzero" fill="rgb(100%, 100%, 100%)" fill-opacity="1" d="M 311.152344 484.75 C 310.964844 482.769531 310.570312 480.820312 309.984375 478.9375 C 309.125 476.191406 307.859375 473.574219 306.207031 471.191406 C 305.488281 470.152344 305.75 468.722656 306.792969 468.003906 C 307.832031 467.285156 309.257812 467.546875 309.976562 468.589844 C 311.898438 471.367188 313.371094 474.398438 314.363281 477.574219 C 315.097656 479.925781 315.566406 482.351562 315.765625 484.808594 C 314.238281 484.726562 312.695312 484.710938 311.152344 484.75 M 262.441406 513.949219 C 258.921875 511.289062 256 507.976562 253.808594 504.234375 C 250.871094 499.222656 249.25 493.453125 249.25 487.460938 C 249.25 484.136719 249.753906 480.84375 250.730469 477.675781 C 251.703125 474.519531 253.144531 471.511719 255.023438 468.757812 C 255.113281 468.625 255.21875 468.503906 255.328125 468.394531 C 255.359375 468.363281 255.394531 468.332031 255.425781 468.304688 C 256.355469 467.445312 257.808594 467.507812 258.664062 468.4375 L 286.054688 498.257812 C 285.898438 498.601562 285.820312 498.980469 285.824219 499.359375 C 284.398438 499.582031 282.980469 499.859375 281.585938 500.167969 L 257.328125 473.761719 C 256.414062 475.441406 255.667969 477.207031 255.109375 479.023438 C 254.273438 481.726562 253.839844 484.570312 253.839844 487.460938 C 253.839844 492.644531 255.238281 497.621094 257.757812 501.921875 C 260.214844 506.117188 263.746094 509.6875 268.105469 512.210938 C 266.164062 512.675781 264.269531 513.25 262.441406 513.949219 "/>
<path fill-rule="nonzero" fill="rgb(100%, 100%, 100%)" fill-opacity="1" d="M 284.738281 458.953125 L 284.738281 487.003906 C 284.738281 488.269531 283.710938 489.296875 282.441406 489.296875 C 281.171875 489.296875 280.144531 488.269531 280.144531 487.003906 L 280.144531 458.953125 C 277.46875 459.164062 274.859375 459.75 272.382812 460.679688 C 269.199219 461.875 266.226562 463.640625 263.621094 465.917969 C 262.667969 466.75 261.222656 466.652344 260.390625 465.699219 C 259.558594 464.75 259.65625 463.304688 260.605469 462.46875 C 263.628906 459.828125 267.082031 457.78125 270.785156 456.390625 C 274.496094 454.996094 278.441406 454.265625 282.441406 454.265625 C 286.46875 454.265625 290.4375 455.003906 294.160156 456.410156 C 297.886719 457.816406 301.351562 459.886719 304.375 462.550781 C 305.328125 463.386719 305.417969 464.835938 304.582031 465.789062 C 303.746094 466.738281 302.292969 466.832031 301.34375 465.992188 C 298.726562 463.691406 295.742188 461.90625 292.546875 460.699219 C 290.054688 459.757812 287.429688 459.167969 284.738281 458.953125 "/>
<path fill-rule="evenodd" fill="rgb(100%, 100%, 100%)" fill-opacity="1" d="M 277.230469 510.761719 C 277.679688 509.742188 278.0625 508.847656 278.511719 507.828125 C 279.015625 506.957031 280.140625 506.667969 281.363281 506.628906 C 286.574219 506.339844 291.785156 506.050781 297 505.757812 C 297.113281 505.539062 297.230469 505.320312 297.347656 505.097656 C 295.554688 504.496094 289.121094 504.910156 282.300781 505.410156 C 314.144531 500.714844 344.316406 499.054688 372.714844 498.925781 C 364.828125 510.234375 345.457031 520.535156 331.300781 522.035156 C 346.332031 517.6875 355.300781 512.40625 360.636719 506.566406 C 357.347656 508.804688 354.066406 511.0625 350.457031 512.4375 C 340.878906 512.582031 328.570312 510.476562 321.617188 510.25 C 323.050781 511.332031 328.769531 512.164062 334.300781 513.027344 C 315.277344 512.273438 296.253906 511.515625 277.230469 510.761719 "/>
<path fill-rule="evenodd" fill="rgb(100%, 100%, 100%)" fill-opacity="1" d="M 273.398438 510.464844 C 274.160156 510.578125 275 510.375 275.761719 510.488281 C 276.617188 508 277.390625 505.820312 279.097656 504.394531 C 281.875 502.949219 287.804688 502.296875 292.554688 501.34375 C 288.730469 501.417969 284.320312 502.15625 280.253906 503.160156 C 277.484375 503.832031 276.226562 507.457031 275.132812 509.9375 C 274.554688 510.113281 273.972656 510.289062 273.398438 510.464844 "/>
<path fill-rule="evenodd" fill="rgb(100%, 100%, 100%)" fill-opacity="1" d="M 288.445312 499.328125 C 293.355469 494.847656 298.527344 491.507812 304.1875 490.328125 C 308.601562 489.605469 312.875 490.027344 317.171875 490.128906 C 317.851562 490.144531 318.566406 490.425781 319.140625 490.855469 C 320.597656 491.941406 322.054688 492.894531 323.507812 493.976562 C 322.375 492.832031 321.238281 491.683594 320.101562 490.539062 C 324.601562 490.148438 327.847656 493.316406 330.484375 495.527344 C 343.625 494.828125 354.605469 495.371094 364.558594 496.511719 C 346.566406 495.332031 328.929688 495.882812 311.546875 497.644531 C 313.898438 497.097656 316.742188 496.738281 319.738281 496.433594 C 319.765625 496.207031 319.683594 496.015625 319.464844 495.859375 C 316.832031 496.050781 314.441406 496.125 311.769531 496.246094 C 311.191406 496.246094 310.492188 495.953125 310.128906 495.585938 C 309.273438 494.671875 308.414062 493.753906 307.558594 492.835938 C 307.449219 492.878906 307.335938 492.917969 307.226562 492.957031 C 307.753906 493.859375 308.40625 494.726562 309.132812 495.582031 C 309.316406 495.796875 309.457031 496.121094 309.109375 496.167969 C 304.578125 496.8125 300.042969 497.457031 295.511719 498.101562 C 295.886719 497.886719 296.644531 497.628906 296.332031 497.316406 C 294.984375 496.65625 291.457031 498.257812 288.445312 499.328125 "/>
<path fill-rule="evenodd" fill="rgb(100%, 100%, 100%)" fill-opacity="1" d="M 290 496.992188 C 297.25 489.324219 307.746094 486.125 323.207031 489.761719 C 324.277344 490.050781 326.289062 491.722656 327.3125 491.019531 C 327.507812 490.882812 327.71875 490.738281 327.886719 490.570312 C 328.046875 490.410156 328.003906 490.320312 327.847656 490.246094 C 320.144531 486.535156 309.308594 486.589844 296.015625 489.238281 C 292.921875 489.703125 289.917969 490.273438 286.824219 491.359375 C 288.78125 491.59375 290.707031 491.648438 292.660156 491.851562 C 293.816406 491.972656 293.175781 491.40625 293.445312 491.152344 C 293.847656 490.777344 294.789062 491.582031 294.082031 492.140625 C 292.71875 493.757812 291.359375 495.375 290 496.992188 "/>
<path fill-rule="evenodd" fill="rgb(100%, 100%, 100%)" fill-opacity="1" d="M 258.394531 518.722656 C 279.921875 511.183594 301.941406 517.960938 324.117188 519.636719 C 304.820312 514.835938 276.550781 508.398438 258.394531 518.722656 "/>
<path fill-rule="evenodd" fill="rgb(100%, 100%, 100%)" fill-opacity="1" d="M 257.292969 523.238281 C 288.558594 508.175781 320.898438 528.15625 354.636719 524.296875 C 323.859375 532.746094 295.65625 511.792969 257.292969 523.238281 "/>
<path fill-rule="nonzero" fill="rgb(100%, 100%, 100%)" fill-opacity="1" d="M 43.226562 494.046875 L 43.226562 471.992188 C 43.226562 471.832031 43.277344 471.707031 43.375 471.605469 C 43.480469 471.507812 43.605469 471.457031 43.765625 471.457031 L 48.097656 471.457031 C 48.183594 471.457031 48.269531 471.472656 48.347656 471.511719 C 48.421875 471.550781 48.484375 471.613281 48.53125 471.695312 L 57.5625 484.773438 L 57.5625 471.992188 C 57.5625 471.832031 57.613281 471.707031 57.710938 471.605469 C 57.8125 471.507812 57.945312 471.457031 58.097656 471.457031 L 62.671875 471.457031 C 62.824219 471.457031 62.957031 471.507812 63.058594 471.605469 C 63.15625 471.707031 63.207031 471.832031 63.207031 471.992188 L 63.207031 494.046875 C 63.207031 494.207031 63.15625 494.332031 63.058594 494.433594 C 62.957031 494.53125 62.824219 494.582031 62.671875 494.582031 L 58.351562 494.582031 C 58.265625 494.582031 58.179688 494.558594 58.097656 494.519531 C 58.023438 494.480469 57.960938 494.421875 57.917969 494.34375 L 48.875 481.246094 L 48.875 494.046875 C 48.875 494.207031 48.820312 494.332031 48.722656 494.433594 C 48.621094 494.53125 48.496094 494.582031 48.335938 494.582031 L 43.765625 494.582031 C 43.605469 494.582031 43.480469 494.53125 43.375 494.433594 C 43.277344 494.332031 43.226562 494.207031 43.226562 494.046875 M 66.601562 493.863281 L 75.421875 471.792969 C 75.46875 471.691406 75.535156 471.609375 75.621094 471.546875 C 75.710938 471.484375 75.804688 471.457031 75.90625 471.457031 L 79.78125 471.457031 C 79.878906 471.457031 79.976562 471.484375 80.0625 471.546875 C 80.152344 471.609375 80.222656 471.691406 80.269531 471.792969 L 89.097656 493.863281 C 89.191406 494.085938 89.183594 494.261719 89.09375 494.386719 C 88.996094 494.519531 88.835938 494.582031 88.605469 494.582031 L 83.773438 494.582031 C 83.527344 494.582031 83.363281 494.46875 83.273438 494.246094 L 81.601562 489.828125 L 74.105469 489.828125 L 72.414062 494.246094 C 72.324219 494.46875 72.160156 494.582031 71.914062 494.582031 L 67.101562 494.582031 C 66.867188 494.582031 66.703125 494.519531 66.613281 494.386719 C 66.515625 494.261719 66.515625 494.085938 66.601562 493.863281 M 75.636719 485.789062 L 80.0625 485.789062 L 77.84375 479.660156 Z M 92.761719 471.457031 L 97.332031 471.457031 C 97.492188 471.457031 97.617188 471.507812 97.722656 471.605469 C 97.816406 471.707031 97.871094 471.832031 97.871094 471.992188 L 97.871094 483.992188 C 97.871094 486.429688 98.347656 488.078125 99.304688 488.929688 C 100.253906 489.78125 101.363281 490.203125 102.636719 490.203125 C 103.878906 490.203125 104.992188 489.78125 105.960938 488.929688 C 106.90625 488.097656 107.378906 486.453125 107.378906 483.992188 L 107.378906 471.992188 C 107.378906 471.832031 107.429688 471.707031 107.527344 471.605469 C 107.628906 471.507812 107.761719 471.457031 107.917969 471.457031 L 112.523438 471.457031 C 112.675781 471.457031 112.808594 471.507812 112.910156 471.605469 C 113.007812 471.707031 113.058594 471.832031 113.058594 471.992188 L 113.058594 484.507812 C 113.058594 488.109375 112.105469 490.746094 110.203125 492.40625 C 108.269531 494.0625 105.753906 494.890625 102.660156 494.890625 C 99.546875 494.890625 97.03125 494.0625 95.097656 492.40625 C 93.183594 490.757812 92.222656 488.121094 92.222656 484.507812 L 92.222656 471.992188 C 92.222656 471.832031 92.277344 471.707031 92.375 471.605469 C 92.476562 471.507812 92.601562 471.457031 92.761719 471.457031 M 116.527344 471.457031 L 135.152344 471.457031 C 135.308594 471.457031 135.433594 471.507812 135.535156 471.605469 C 135.640625 471.707031 135.683594 471.832031 135.683594 471.992188 L 135.683594 475.46875 C 135.683594 475.628906 135.640625 475.753906 135.535156 475.859375 C 135.433594 475.953125 135.308594 476.003906 135.152344 476.003906 L 128.652344 476.003906 L 128.652344 494.046875 C 128.652344 494.207031 128.601562 494.332031 128.503906 494.433594 C 128.402344 494.53125 128.277344 494.582031 128.117188 494.582031 L 123.546875 494.582031 C 123.386719 494.582031 123.257812 494.53125 123.15625 494.433594 C 123.0625 494.332031 123.007812 494.207031 123.007812 494.046875 L 123.007812 476.003906 L 116.527344 476.003906 C 116.371094 476.003906 116.246094 475.953125 116.144531 475.859375 C 116.042969 475.753906 115.996094 475.628906 115.996094 475.46875 L 115.996094 471.992188 C 115.996094 471.832031 116.042969 471.707031 116.144531 471.605469 C 116.246094 471.507812 116.371094 471.457031 116.527344 471.457031 M 138.785156 471.992188 C 138.785156 471.832031 138.835938 471.707031 138.933594 471.605469 C 139.039062 471.507812 139.164062 471.457031 139.320312 471.457031 L 143.894531 471.457031 C 144.054688 471.457031 144.179688 471.507812 144.28125 471.605469 C 144.378906 471.707031 144.429688 471.832031 144.429688 471.992188 L 144.429688 494.046875 C 144.429688 494.207031 144.378906 494.332031 144.28125 494.433594 C 144.179688 494.53125 144.054688 494.582031 143.894531 494.582031 L 139.320312 494.582031 C 139.164062 494.582031 139.039062 494.53125 138.933594 494.433594 C 138.835938 494.332031 138.785156 494.207031 138.785156 494.046875 Z M 138.785156 471.992188 "/>
<path fill-rule="nonzero" fill="rgb(100%, 100%, 100%)" fill-opacity="1" d="M 148.25 471.457031 L 166.878906 471.457031 C 167.035156 471.457031 167.160156 471.507812 167.261719 471.605469 C 167.363281 471.707031 167.410156 471.832031 167.410156 471.992188 L 167.410156 475.46875 C 167.410156 475.628906 167.363281 475.753906 167.261719 475.855469 C 167.160156 475.953125 167.035156 476.003906 166.878906 476.003906 L 160.378906 476.003906 L 160.378906 494.046875 C 160.378906 494.207031 160.328125 494.332031 160.230469 494.433594 C 160.128906 494.53125 160.003906 494.582031 159.84375 494.582031 L 155.269531 494.582031 C 155.109375 494.582031 154.984375 494.53125 154.882812 494.433594 C 154.785156 494.332031 154.734375 494.207031 154.734375 494.046875 L 154.734375 476.003906 L 148.25 476.003906 C 148.097656 476.003906 147.972656 475.953125 147.871094 475.855469 C 147.765625 475.753906 147.722656 475.628906 147.722656 475.46875 L 147.722656 471.992188 C 147.722656 471.832031 147.765625 471.707031 147.871094 471.605469 C 147.972656 471.507812 148.097656 471.457031 148.25 471.457031 M 181.476562 471.011719 C 185.199219 471.011719 188.125 472.105469 190.257812 474.300781 C 192.394531 476.484375 193.46875 479.371094 193.46875 482.96875 C 193.46875 484.804688 193.1875 486.457031 192.625 487.929688 C 192.058594 489.394531 191.253906 490.648438 190.21875 491.675781 C 189.175781 492.707031 187.914062 493.5 186.4375 494.058594 C 184.960938 494.609375 183.308594 494.890625 181.476562 494.890625 C 179.65625 494.890625 178.011719 494.609375 176.53125 494.058594 C 175.054688 493.5 173.796875 492.699219 172.746094 491.667969 C 171.699219 490.632812 170.894531 489.382812 170.328125 487.910156 C 169.765625 486.441406 169.484375 484.792969 169.484375 482.96875 C 169.484375 481.140625 169.765625 479.488281 170.328125 478.019531 C 170.894531 476.542969 171.699219 475.285156 172.734375 474.25 C 173.78125 473.21875 175.039062 472.414062 176.515625 471.855469 C 177.992188 471.289062 179.644531 471.011719 181.476562 471.011719 M 175.199219 482.957031 C 175.199219 485.304688 175.816406 487.101562 177.039062 488.351562 C 178.265625 489.585938 179.742188 490.203125 181.472656 490.203125 C 182.335938 490.203125 183.140625 490.054688 183.882812 489.753906 C 184.625 489.449219 185.300781 488.984375 185.917969 488.351562 C 187.144531 487.101562 187.753906 485.304688 187.753906 482.957031 C 187.753906 480.601562 187.144531 478.808594 185.917969 477.585938 C 184.679688 476.347656 183.199219 475.730469 181.472656 475.730469 C 179.742188 475.730469 178.265625 476.347656 177.039062 477.585938 C 175.816406 478.828125 175.199219 480.625 175.199219 482.957031 M 196.972656 471.457031 L 201.546875 471.457031 C 201.707031 471.457031 201.832031 471.507812 201.933594 471.605469 C 202.03125 471.707031 202.082031 471.832031 202.082031 471.992188 L 202.082031 483.992188 C 202.082031 486.429688 202.5625 488.074219 203.519531 488.933594 C 204.46875 489.78125 205.578125 490.203125 206.851562 490.203125 C 208.09375 490.203125 209.207031 489.78125 210.175781 488.933594 C 211.121094 488.097656 211.59375 486.449219 211.59375 483.992188 L 211.59375 471.992188 C 211.59375 471.832031 211.644531 471.707031 211.742188 471.605469 C 211.84375 471.507812 211.976562 471.457031 212.128906 471.457031 L 216.738281 471.457031 C 216.890625 471.457031 217.023438 471.507812 217.125 471.605469 C 217.222656 471.707031 217.273438 471.832031 217.273438 471.992188 L 217.273438 484.507812 C 217.273438 488.109375 216.320312 490.746094 214.417969 492.402344 C 212.484375 494.0625 209.96875 494.890625 206.875 494.890625 C 203.761719 494.890625 201.246094 494.0625 199.3125 492.402344 C 197.398438 490.757812 196.4375 488.121094 196.4375 484.507812 L 196.4375 471.992188 C 196.4375 471.832031 196.488281 471.707031 196.585938 471.605469 C 196.691406 471.507812 196.8125 471.457031 196.972656 471.457031 M 221.03125 494.046875 L 221.03125 471.992188 C 221.03125 471.832031 221.082031 471.707031 221.179688 471.605469 C 221.28125 471.507812 221.40625 471.457031 221.566406 471.457031 L 229.066406 471.457031 C 231.773438 471.457031 233.867188 472.109375 235.347656 473.429688 C 236.835938 474.757812 237.582031 476.53125 237.582031 478.75 C 237.582031 481.882812 236.226562 483.953125 233.507812 484.957031 L 239.636719 493.75 C 239.816406 494.007812 239.863281 494.207031 239.789062 494.355469 C 239.710938 494.507812 239.515625 494.582031 239.203125 494.582031 L 234.257812 494.582031 C 234.070312 494.582031 233.929688 494.503906 233.824219 494.34375 L 227.992188 485.789062 L 226.675781 485.789062 L 226.675781 494.046875 C 226.675781 494.207031 226.625 494.332031 226.527344 494.433594 C 226.425781 494.53125 226.300781 494.582031 226.140625 494.582031 L 221.566406 494.582031 C 221.40625 494.582031 221.28125 494.53125 221.179688 494.433594 C 221.082031 494.332031 221.03125 494.207031 221.03125 494.046875 M 226.675781 476.003906 L 226.675781 481.511719 L 229.066406 481.511719 C 229.929688 481.511719 230.617188 481.300781 231.117188 480.875 C 231.617188 480.453125 231.871094 479.738281 231.871094 478.738281 C 231.871094 478.234375 231.800781 477.808594 231.671875 477.460938 C 231.539062 477.117188 231.34375 476.832031 231.09375 476.617188 C 230.84375 476.398438 230.546875 476.246094 230.210938 476.148438 C 229.871094 476.050781 229.488281 476.003906 229.066406 476.003906 Z M 226.675781 476.003906 "/>
<path fill-rule="nonzero" fill="rgb(100%, 100%, 100%)" fill-opacity="1" d="M 45.144531 515.585938 L 43.597656 515.585938 C 43.4375 515.585938 43.347656 515.496094 43.328125 515.316406 L 43.328125 504.082031 C 43.328125 503.917969 43.417969 503.828125 43.597656 503.808594 L 47.0625 503.808594 C 47.621094 503.808594 48.152344 503.878906 48.660156 504.011719 C 49.171875 504.148438 49.621094 504.355469 50.011719 504.636719 C 50.40625 504.921875 50.714844 505.285156 50.941406 505.726562 C 51.171875 506.171875 51.285156 506.707031 51.285156 507.324219 C 51.285156 508.460938 50.886719 509.316406 50.09375 509.890625 C 49.300781 510.46875 48.289062 510.753906 47.0625 510.753906 L 45.414062 510.753906 L 45.414062 515.316406 C 45.414062 515.472656 45.324219 515.5625 45.144531 515.585938 M 47.0625 509.039062 C 47.4375 509.039062 47.789062 508.984375 48.105469 508.871094 C 48.421875 508.757812 48.679688 508.574219 48.875 508.320312 C 49.066406 508.070312 49.164062 507.730469 49.164062 507.316406 C 49.164062 506.894531 49.070312 506.550781 48.878906 506.289062 C 48.6875 506.027344 48.429688 505.835938 48.113281 505.714844 C 47.796875 505.59375 47.445312 505.535156 47.0625 505.535156 L 45.414062 505.535156 L 45.414062 509.039062 Z M 79.484375 515.585938 L 77.8125 515.585938 C 77.703125 515.585938 77.617188 515.527344 77.558594 515.40625 L 76.6875 513.078125 L 72.140625 513.078125 L 71.273438 515.40625 C 71.214844 515.527344 71.128906 515.585938 71.019531 515.585938 L 69.34375 515.585938 C 69.171875 515.585938 69.082031 515.515625 69.082031 515.367188 C 69.082031 515.320312 69.089844 515.273438 69.101562 515.222656 L 73.503906 503.980469 C 73.5625 503.863281 73.648438 503.808594 73.753906 503.808594 L 75.070312 503.808594 C 75.1875 503.808594 75.273438 503.863281 75.324219 503.980469 L 79.730469 515.222656 C 79.746094 515.28125 79.753906 515.328125 79.753906 515.367188 C 79.753906 515.515625 79.664062 515.585938 79.484375 515.585938 M 76.042969 511.355469 L 74.414062 506.996094 L 72.785156 511.355469 Z M 102.527344 515.757812 C 101.496094 515.757812 100.417969 515.570312 99.292969 515.195312 C 99.171875 515.148438 99.113281 515.058594 99.113281 514.933594 L 99.273438 513.667969 C 99.308594 513.503906 99.386719 513.425781 99.511719 513.425781 C 99.558594 513.425781 99.59375 513.433594 99.628906 513.449219 C 100.667969 513.78125 101.628906 513.949219 102.527344 513.949219 C 103.152344 513.949219 103.667969 513.863281 104.0625 513.695312 C 104.613281 513.464844 104.882812 513.066406 104.882812 512.503906 C 104.882812 512.050781 104.722656 511.695312 104.394531 511.433594 C 104.066406 511.171875 103.457031 510.839844 102.554688 510.441406 C 101.660156 510.042969 100.871094 509.558594 100.195312 508.984375 C 99.519531 508.414062 99.183594 507.671875 99.183594 506.757812 C 99.183594 505.84375 99.535156 505.085938 100.238281 504.480469 C 100.941406 503.878906 101.996094 503.574219 103.40625 503.574219 C 104.335938 503.574219 105.335938 503.757812 106.40625 504.128906 C 106.523438 504.175781 106.582031 504.261719 106.582031 504.382812 L 106.421875 505.667969 C 106.394531 505.832031 106.3125 505.914062 106.175781 505.914062 C 106.144531 505.914062 106.109375 505.910156 106.078125 505.898438 L 106.058594 505.898438 C 105.085938 505.558594 104.199219 505.390625 103.40625 505.390625 C 102.835938 505.390625 102.382812 505.449219 102.046875 505.574219 C 101.550781 505.757812 101.300781 506.09375 101.300781 506.589844 C 101.300781 506.984375 101.453125 507.3125 101.757812 507.574219 C 102.0625 507.835938 102.660156 508.164062 103.550781 508.5625 C 104.4375 508.960938 105.238281 509.445312 105.945312 510.019531 C 106.652344 510.597656 107.003906 511.363281 107.003906 512.324219 C 107.003906 513.292969 106.625 514.109375 105.863281 514.769531 C 105.105469 515.425781 103.992188 515.757812 102.527344 515.757812 M 129.871094 515.757812 C 128.84375 515.757812 127.765625 515.570312 126.636719 515.195312 C 126.519531 515.148438 126.457031 515.058594 126.457031 514.933594 L 126.621094 513.667969 C 126.652344 513.503906 126.730469 513.425781 126.855469 513.425781 C 126.902344 513.425781 126.941406 513.433594 126.972656 513.449219 C 128.011719 513.78125 128.976562 513.949219 129.871094 513.949219 C 130.496094 513.949219 131.011719 513.863281 131.410156 513.695312 C 131.957031 513.464844 132.226562 513.066406 132.226562 512.503906 C 132.226562 512.050781 132.066406 511.695312 131.742188 511.433594 C 131.414062 511.171875 130.800781 510.839844 129.902344 510.441406 C 129.003906 510.042969 128.21875 509.558594 127.539062 508.984375 C 126.863281 508.414062 126.527344 507.671875 126.527344 506.757812 C 126.527344 505.84375 126.878906 505.085938 127.582031 504.480469 C 128.285156 503.878906 129.34375 503.574219 130.75 503.574219 C 131.679688 503.574219 132.679688 503.757812 133.75 504.128906 C 133.867188 504.175781 133.925781 504.261719 133.925781 504.382812 L 133.765625 505.667969 C 133.738281 505.832031 133.660156 505.914062 133.523438 505.914062 C 133.488281 505.914062 133.453125 505.910156 133.421875 505.898438 L 133.40625 505.898438 C 132.429688 505.558594 131.542969 505.390625 130.75 505.390625 C 130.179688 505.390625 129.726562 505.449219 129.390625 505.574219 C 128.894531 505.757812 128.648438 506.09375 128.648438 506.589844 C 128.648438 506.984375 128.800781 507.3125 129.101562 507.574219 C 129.40625 507.835938 130.003906 508.164062 130.894531 508.5625 C 131.785156 508.960938 132.582031 509.445312 133.289062 510.019531 C 133.996094 510.597656 134.351562 511.363281 134.351562 512.324219 C 134.351562 513.292969 133.96875 514.109375 133.207031 514.769531 C 132.449219 515.425781 131.335938 515.757812 129.871094 515.757812 M 160.960938 515.585938 L 154.320312 515.585938 C 154.160156 515.585938 154.070312 515.496094 154.046875 515.316406 L 154.046875 504.082031 C 154.046875 503.917969 154.140625 503.828125 154.320312 503.808594 L 160.960938 503.808594 C 161.125 503.808594 161.214844 503.898438 161.230469 504.082031 L 161.230469 505.261719 C 161.230469 505.421875 161.140625 505.511719 160.960938 505.535156 L 156.136719 505.535156 L 156.136719 508.796875 L 160.554688 508.796875 C 160.71875 508.796875 160.808594 508.886719 160.824219 509.066406 L 160.824219 510.238281 C 160.824219 510.394531 160.734375 510.484375 160.554688 510.507812 L 156.136719 510.507812 L 156.136719 513.863281 L 160.960938 513.863281 C 161.125 513.863281 161.214844 513.953125 161.230469 514.132812 L 161.230469 515.316406 C 161.230469 515.472656 161.140625 515.5625 160.960938 515.585938 M 182.921875 515.585938 L 181.375 515.585938 C 181.21875 515.585938 181.128906 515.496094 181.105469 515.316406 L 181.105469 504.082031 C 181.105469 503.917969 181.195312 503.828125 181.375 503.808594 L 182.921875 503.808594 C 183.085938 503.808594 183.175781 503.898438 183.191406 504.082031 L 183.191406 515.316406 C 183.191406 515.472656 183.105469 515.5625 182.921875 515.585938 M 208.558594 515.757812 C 207.332031 515.757812 206.289062 515.496094 205.425781 514.984375 C 204.5625 514.46875 203.910156 513.753906 203.460938 512.835938 C 203.011719 511.921875 202.789062 510.867188 202.789062 509.671875 C 202.789062 507.796875 203.316406 506.3125 204.363281 505.21875 C 205.414062 504.121094 206.8125 503.574219 208.558594 503.574219 C 210.308594 503.574219 211.707031 504.121094 212.753906 505.21875 C 213.800781 506.3125 214.320312 507.796875 214.320312 509.671875 C 214.320312 511.554688 213.800781 513.039062 212.753906 514.125 C 211.707031 515.210938 210.308594 515.757812 208.558594 515.757812 M 208.558594 513.949219 C 209.605469 513.949219 210.476562 513.578125 211.167969 512.835938 C 211.863281 512.097656 212.207031 511.039062 212.207031 509.664062 C 212.207031 508.296875 211.863281 507.242188 211.167969 506.5 C 210.476562 505.757812 209.605469 505.390625 208.558594 505.390625 C 207.503906 505.390625 206.632812 505.757812 205.945312 506.5 C 205.253906 507.242188 204.910156 508.296875 204.910156 509.664062 C 204.910156 511.039062 205.253906 512.09375 205.949219 512.832031 C 206.636719 513.578125 207.503906 513.949219 208.558594 513.949219 M 237.035156 515.757812 C 236.007812 515.757812 234.925781 515.570312 233.800781 515.195312 C 233.683594 515.148438 233.621094 515.058594 233.621094 514.933594 L 233.78125 513.667969 C 233.816406 513.503906 233.894531 513.425781 234.019531 513.425781 C 234.066406 513.425781 234.101562 513.433594 234.136719 513.449219 C 235.175781 513.78125 236.136719 513.949219 237.035156 513.949219 C 237.660156 513.949219 238.175781 513.863281 238.570312 513.695312 C 239.121094 513.464844 239.390625 513.066406 239.390625 512.503906 C 239.390625 512.050781 239.230469 511.695312 238.902344 511.433594 C 238.574219 511.171875 237.964844 510.839844 237.0625 510.441406 C 236.167969 510.042969 235.378906 509.558594 234.703125 508.984375 C 234.027344 508.414062 233.691406 507.671875 233.691406 506.757812 C 233.691406 505.84375 234.042969 505.085938 234.746094 504.480469 C 235.449219 503.878906 236.503906 503.574219 237.914062 503.574219 C 238.84375 503.574219 239.84375 503.757812 240.914062 504.128906 C 241.03125 504.175781 241.089844 504.261719 241.089844 504.382812 L 240.929688 505.667969 C 240.902344 505.832031 240.820312 505.914062 240.683594 505.914062 C 240.652344 505.914062 240.617188 505.910156 240.585938 505.898438 L 240.566406 505.898438 C 239.59375 505.558594 238.707031 505.390625 237.914062 505.390625 C 237.34375 505.390625 236.890625 505.449219 236.554688 505.574219 C 236.058594 505.757812 235.808594 506.09375 235.808594 506.589844 C 235.808594 506.984375 235.960938 507.3125 236.265625 507.574219 C 236.570312 507.835938 237.167969 508.164062 238.058594 508.5625 C 238.945312 508.960938 239.746094 509.445312 240.453125 510.019531 C 241.160156 510.597656 241.511719 511.363281 241.511719 512.324219 C 241.511719 513.292969 241.132812 514.109375 240.371094 514.769531 C 239.613281 515.425781 238.5 515.757812 237.035156 515.757812 "/>
</svg>